<?xml version="1.0" encoding="UTF-8"?>
<!--Generator: Apple Native CoreSVG 341-->
<!DOCTYPE svg
PUBLIC "-//W3C//DTD SVG 1.1//EN"
       "http://www.w3.org/Graphics/SVG/1.1/DTD/svg11.dtd">
<svg version="1.1" xmlns="http://www.w3.org/2000/svg" xmlns:xlink="http://www.w3.org/1999/xlink" viewBox="0 0 704.25 698.25">
 <g>
  <rect height="698.25" opacity="0" width="704.25" x="0" y="0"/>
  <path d="M190 698.25C203.75 698.25 213.25 691 229.5 676.5L342.25 577.25L563.25 577.25C653.75 577.25 704.25 525.5 704.25 436.5L704.25 181.5C704.25 92.25 653.75 40.5 563.25 40.5L141 40.5C50.25 40.5 0 92 0 181.5L0 436.5C0 526 50.25 577.25 141 577.25L159.75 577.25L159.75 663.25C159.75 684.5 170.75 698.25 190 698.25ZM201 648L201 554C201 538.75 195.25 533 180.25 533L141.25 533C76.75 533 44.25 498.5 44.25 436L44.25 181.75C44.25 119.25 76.75 84.75 141.25 84.75L563 84.75C626.75 84.75 660 119.25 660 181.75L660 436C660 498.5 626.75 533 563 533L341.25 533C325.5 533 317.25 535.5 306.25 546.75Z" fill="white" fill-opacity="0.85"/>
  <path d="M141.5 346L279.25 346C288.25 346 295.5 338.75 295.5 329.5C295.5 320.75 288.25 313.25 279.25 313.25L141.5 313.25C132.25 313.25 125 320.75 125 329.5C125 338.75 132.25 346 141.5 346ZM348.25 346L563 346C572.25 346 579.5 338.75 579.5 329.5C579.5 320.75 572.25 313.25 563 313.25L348.25 313.25C339.25 313.25 332 320.75 332 329.5C332 338.75 339.25 346 348.25 346ZM141.5 427.5L197.25 427.5C206.25 427.5 213.5 420.25 213.5 411.25C213.5 401.75 206.25 394.5 197.25 394.5L141.5 394.5C132.25 394.5 125 401.75 125 411.25C125 420.25 132.25 427.5 141.5 427.5ZM266.25 427.5L431.5 427.5C440.5 427.5 447.75 420.25 447.75 411.25C447.75 401.75 440.5 394.5 431.5 394.5L266.25 394.5C257.25 394.5 250 401.75 250 411.25C250 420.25 257.25 427.5 266.25 427.5ZM500.5 427.5L563 427.5C572.25 427.5 579.5 420.25 579.5 411.25C579.5 401.75 572.25 394.5 563 394.5L500.5 394.5C491.5 394.5 484.25 401.75 484.25 411.25C484.25 420.25 491.5 427.5 500.5 427.5Z" fill="white" fill-opacity="0.85"/>
 </g>
</svg>
